<?xml version="1.0" encoding="utf-8"?>
<!-- Generator: Adobe Illustrator 23.0.1, SVG Export Plug-In . SVG Version: 6.00 Build 0)  -->
<svg version="1.1" id="Layer_1" xmlns="http://www.w3.org/2000/svg" xmlns:xlink="http://www.w3.org/1999/xlink" x="0px" y="0px"
	 viewBox="0 0 129.7 218.8" style="enable-background:new 0 0 129.7 218.8;" xml:space="preserve">
<style type="text/css">
	.st0{fill:#FFFFFF;}
</style>
<title>arrow</title>
<path class="st0" d="M129.7,22.3c-0.4,1.8-1.8,2.7-3,3.9c-20.6,21.1-41.3,42.1-61.9,63.1c-5.4,5.5-10.5,11.2-16.1,16.4
	c-2.8,2.7-2.8,4.4,0,7.2c21.1,21.3,42.1,42.7,63.1,64.1c5.4,5.5,10.6,11.1,16,16.5c2.3,2.3,2.4,3.9,0.1,6.2
	c-5.6,5.4-11.2,10.9-16.4,16.7c-3,3.4-4.9,3.1-7.9-0.1c-27.6-28.2-55.2-56.4-82.9-84.5c-6.2-6.3-12.2-12.8-18.5-18.9
	c-2.9-2.8-2.7-4.6,0-7.3c8-8,15.9-16.1,23.8-24.2C51.7,55.2,77.6,29,103.2,2.6c3.2-3.3,5.1-3.6,8.2-0.1c5.1,5.7,10.6,11.1,15.9,16.6
	C128.3,20,129.4,20.9,129.7,22.3z"/>
</svg>
