<svg id="Layer_1" data-name="Layer 1" xmlns="http://www.w3.org/2000/svg" viewBox="0 0 129.69 218.81"><title>arrow</title><path d="M176.51,26.42c-.35,1.75-1.81,2.7-2.95,3.87q-30.94,31.58-61.92,63.12c-5.37,5.47-10.53,11.15-16.06,16.44-2.83,2.7-2.8,4.38,0,7.18q31.66,31.92,63.05,64.12c5.36,5.47,10.57,11.1,16,16.46,2.3,2.26,2.41,3.88.07,6.16-5.61,5.45-11.22,10.93-16.45,16.74-3,3.36-4.87,3.06-7.91-.06Q109,178.08,67.41,135.94c-6.18-6.29-12.16-12.8-18.51-18.92-2.89-2.78-2.67-4.62,0-7.28,8-8,15.89-16.14,23.82-24.22C98.53,59.27,124.39,33.08,150.05,6.7c3.19-3.28,5.11-3.6,8.24-.08,5.07,5.74,10.6,11.06,15.92,16.56C175.13,24.13,176.23,25,176.51,26.42Z" transform="translate(-46.82 -4.11)"/></svg>